<svg width="20" height="20" viewBox="0 0 20 20" fill="none" xmlns="http://www.w3.org/2000/svg">
<g clip-path="url(#clip0_17514_241)">
<path d="M10 2.58335L5.875 6.70835C5.05925 7.52418 4.50374 8.56358 4.2787 9.69512C4.05367 10.8267 4.16923 11.9995 4.61076 13.0654C5.05228 14.1313 5.79996 15.0423 6.75923 15.6832C7.71851 16.3242 8.8463 16.6663 10 16.6663C11.1537 16.6663 12.2815 16.3242 13.2408 15.6832C14.2 15.0423 14.9477 14.1313 15.3892 13.0654C15.8308 11.9995 15.9463 10.8267 15.7213 9.69512C15.4963 8.56358 14.9407 7.52418 14.125 6.70835L10 2.58335ZM10 0.226685L15.3033 5.53002C16.3522 6.57892 17.0665 7.91529 17.3559 9.37014C17.6453 10.825 17.4967 12.333 16.9291 13.7034C16.3614 15.0739 15.4001 16.2452 14.1668 17.0693C12.9334 17.8934 11.4834 18.3333 10 18.3333C8.51664 18.3333 7.0666 17.8934 5.83323 17.0693C4.59986 16.2452 3.63857 15.0739 3.07091 13.7034C2.50325 12.333 2.35472 10.825 2.6441 9.37014C2.93348 7.91529 3.64778 6.57892 4.69666 5.53002L10 0.226685Z" fill="#AEAEB3"/>
</g>
<defs>
<clipPath id="clip0_17514_241">
<rect width="20" height="20" fill="white"/>
</clipPath>
</defs>
</svg>
